<svg xmlns="http://www.w3.org/2000/svg" viewBox="0 0 256 198">
  <path d="M72.3 197.8c-39.9 0-72.3-32.4-72.3-72.3 0-33.2 22.5-61.2 53-69.5C60.5 23.9 86.8 0 118.7 0c28.9 0 53.7 18.1 63.4 43.6 3.8-.8 7.8-1.3 11.9-1.3 31.8 0 57.6 25.2 58.9 56.7h3.1v1c0 .3.1.6.1.9 0 53.5-43.4 96.9-96.9 96.9H72.3z" fill="#2C6ECB"/>
  <path d="M159.2 96.9c-17 0-30.8 13.8-30.8 30.8 0 1.7.1 3.4.4 5h-29.5c.3-1.6.4-3.3.4-5 0-17-13.8-30.8-30.8-30.8S38.1 109.9 38.1 126.9c0 1.7.1 3.4.4 5H30c-5.5 0-10-4.5-10-10V90.4c0-5.5 4.5-10 10-10h196c5.5 0 10 4.5 10 10v31.5c0 5.5-4.5 10-10 10h-8.5c.3-1.6.4-3.3.4-5 0-17-13.8-30-30.7-30z" fill="#fff" opacity=".3"/>
</svg>